<svg xmlns="http://www.w3.org/2000/svg" width="512" height="512" viewBox="0 0 512 512" version="1.1">
	<path d="M 188.841 153.524 C 184.167 156.063, 181.933 161.078, 180.950 171.243 C 180.457 176.334, 180.056 220.325, 180.059 269 L 180.064 357.500 182.782 362.954 C 186.470 370.355, 189.680 372.536, 196.637 372.368 C 201.308 372.256, 203.255 371.534, 209.809 367.487 C 214.039 364.875, 233.475 352.964, 253 341.019 C 346.412 283.871, 367.325 270.959, 369.250 269.247 C 371.049 267.646, 371.688 260.599, 370.235 258.376 C 369.654 257.487, 294.291 210.022, 211.366 158.318 C 202.469 152.771, 200.639 152.005, 196.366 152.040 C 193.690 152.062, 190.304 152.730, 188.841 153.524" stroke="none" fill="black" fill-rule="evenodd"/>
</svg>